<svg xmlns="http://www.w3.org/2000/svg" viewBox="0 0 64 64"><defs><style>.cls-1{fill:#4bbfa0;}.cls-2{fill:#fff;}</style></defs><title>Ativo 4</title><g id="Camada_2" data-name="Camada 2"><g id="Camada_1-2" data-name="Camada 1"><circle class="cls-1" cx="32" cy="32" r="32"/><path class="cls-2" d="M38,47.36c1.08-.2,1.89-.34,2.69-.51C51.52,44.48,56.07,32.53,49.81,23a3.52,3.52,0,0,1-.33-1.74c-.06-2,0-4-.13-6-.11-1.53-1-2.27-2.48-1.64C45,14.4,43.18,15.3,41.29,16a5.31,5.31,0,0,1-2.77.45,32.87,32.87,0,0,0-13.4.07,4.28,4.28,0,0,1-2.25-.38c-2.05-.82-4.05-1.78-6.1-2.6-1.11-.45-1.89,0-2,1.26-.21,1.67-.72,3.46-.38,5,.41,1.9-.19,3.14-1.06,4.64A15.23,15.23,0,0,0,24.71,47.16c.31,0,.63.06,1,.09-.53,1.35-1,2.68-1.59,3.93a2.27,2.27,0,0,1-1.25,1c-3.15,1.07-5.81,0-7.82-2.77A12.11,12.11,0,0,0,12,46.27c-.89-.57-2.16-.52-3.27-.74l-.29.69c.43.47.89.92,1.29,1.41,1,1.23,2.38,2.31,3,3.73,1.67,4,4.59,5.54,8.61,5.28L24,56.49c0,2,.1,4,0,6-.1,1.44-1.16,1.83-2.95,1.13A31.49,31.49,0,0,1,4.69,49.89C-7.38,29.32,5.06,3.06,28.17.24,47.59-2.13,64.25,13.39,64,33.63c-.17,13.1-9,25.69-21,30-2.27.82-3,.26-3-2.22,0-2.3,0-4.6,0-6.89A10.46,10.46,0,0,0,38,47.36Z"/></g></g></svg>