<svg xmlns="http://www.w3.org/2000/svg" viewBox="0 0 64 64"><defs><style>.cls-1{fill:#fff;}.cls-2{fill:#4bbfa0;}</style></defs><title>Ativo 5</title><g id="Camada_2" data-name="Camada 2"><g id="Camada_1-2" data-name="Camada 1"><circle class="cls-1" cx="32" cy="32" r="32"/><path class="cls-2" d="M47.94,46.82c-1.88,0-3.76-.12-5.64-.08-1,0-1.24-.34-1.22-1.3,0-3.1.06-6.2,0-9.3,0-1.73-.45-3.39-2.14-4.21-2.51-1.23-5.25.66-5.36,3.72-.09,2.56,0,5.13,0,7.7v3.36c-1.94,0-3.81,0-5.67-.05-.26,0-.67-.8-.68-1.23,0-3.89,0-7.79,0-11.68,0-1.95,0-3.9,0-5.84,0-.84.23-1.22,1.1-1.18,1.32.05,2.66.07,4,0,1-.07,1.38.39,1.31,1.39a15.42,15.42,0,0,0,.11,1.69c.44-.4.69-.59.9-.82A7.49,7.49,0,0,1,46,29.5a16.88,16.88,0,0,1,1.59,4.11,12.89,12.89,0,0,1,.35,1.52Z"/><path class="cls-2" d="M16.06,20.25c.54-1.24,1.09-2.43,2.54-2.88a3.6,3.6,0,0,1,4.63,2.12,3.2,3.2,0,0,1-2,4.1,3.61,3.61,0,0,1-4.8-2c-.11-.28-.25-.54-.37-.82Z"/><path class="cls-2" d="M22.9,36.8c0,2.88,0,5.75,0,8.62,0,.94-.19,1.39-1.2,1.32a30.72,30.72,0,0,0-3.46,0c-.81,0-1.18-.23-1.17-1.12q0-8.88,0-17.76c0-.88.36-1.16,1.17-1.12a30.83,30.83,0,0,0,3.33,0c1-.06,1.36.25,1.34,1.34C22.86,31,22.9,33.89,22.9,36.8Z"/></g></g></svg>