<svg xmlns="http://www.w3.org/2000/svg" viewBox="0 0 64 64"><defs><style>.cls-1{fill:#fff;}.cls-2{fill:#4bbfa0;}</style></defs><title>Ativo 3</title><g id="Camada_2" data-name="Camada 2"><g id="Camada_1-2" data-name="Camada 1"><circle class="cls-1" cx="32" cy="32" r="32"/><path class="cls-2" d="M12.34,20.07l11.23,0c.73,0,1.46,0,2.18.07,2.83.28,5.31,1.25,6.25,4.21s.43,5.65-2.46,7.45C32.7,34,33.78,36.48,33,39.65a7,7,0,0,1-6.78,5.69c-3.5.29-7,.17-10.55.23l-3.35,0Zm5.83,21c2.51,0,4.75.16,7-.05,1.9-.18,2.78-1.56,2.73-3.58a2.72,2.72,0,0,0-2.74-3,52.5,52.5,0,0,0-6-.14,1.24,1.24,0,0,0-.89.83C18.13,37.12,18.17,39.06,18.17,41.1Zm.1-10.79c2.52-.16,4.91-.21,7.27-.5,1.36-.17,1.88-1.31,1.84-2.61a2.2,2.2,0,0,0-2-2.44c-2.31-.19-4.63-.26-7.07-.39Z"/><path class="cls-2" d="M53.34,36.87H40.06c.06,2.19.79,3.63,2.6,4.38a4.83,4.83,0,0,0,5.12-1A4.32,4.32,0,0,1,50,39.54a22.39,22.39,0,0,1,2.84,0,6.34,6.34,0,0,1-5.06,5.36,16.6,16.6,0,0,1-6.59-.07,7.08,7.08,0,0,1-5.69-6.5,21.21,21.21,0,0,1,0-5.16c.65-4.34,4-7,8.65-7s8,2.45,8.85,6.8a9.56,9.56,0,0,0,.3,1Zm-5.13-3.08a3.68,3.68,0,0,0-4-3.86,3.6,3.6,0,0,0-3.78,3.86Z"/><path class="cls-2" d="M39.23,23.44V21.2h10v2.24Z"/></g></g></svg>