<?xml version="1.0" encoding="utf-8"?>
<!-- Generator: Adobe Illustrator 21.0.0, SVG Export Plug-In . SVG Version: 6.00 Build 0)  -->
<svg version="1.1" id="Layer_1" xmlns="http://www.w3.org/2000/svg" xmlns:xlink="http://www.w3.org/1999/xlink" x="0px" y="0px"
	 viewBox="0 0 1920 1080" style="enable-background:new 0 0 1920 1080;" xml:space="preserve">
<style type="text/css">
	.st0{fill:url(#SVGID_1_);}
	.st1{opacity:0.2;fill:#FFFFFF;enable-background:new    ;}
	.st2{opacity:0.2;fill:#F2F2F2;enable-background:new    ;}
	.st3{opacity:0.8;fill:url(#SVGID_2_);}
	.st4{opacity:0.8;fill:url(#SVGID_3_);}
	.st5{opacity:0.8;fill:url(#SVGID_4_);}
	.st6{opacity:0.8;fill:url(#SVGID_5_);}
	.st7{opacity:0.8;fill:url(#SVGID_6_);}
	.st8{opacity:0.8;fill:url(#SVGID_7_);}
	.st9{opacity:0.8;fill:url(#SVGID_8_);}
</style>
<linearGradient id="SVGID_1_" gradientUnits="userSpaceOnUse" x1="-0.5" y1="546.7684" x2="1921.5" y2="546.7684" gradientTransform="matrix(1 0 0 -1 0 1080)">
	<stop  offset="0" style="stop-color:#1E0089"/>
	<stop  offset="1" style="stop-color:#07D9E3"/>
</linearGradient>
<path class="st0" d="M-0.5,975.7c0,0,341.2,87.8,560.7,91.2c219.6,3.4,675.6-131.7,905.3-128.4c229.7,3.4,456,64.2,456,64.2V-0.5
	H-0.5V975.7z"/>
<path class="st1" d="M237.4,1027.8c104.7,19.6,225.7,37.7,322.9,39.2c192.4,3,566.4-100.4,810.5-123.8l0,0
	C978.7,822.8,237.5,1027.7,237.4,1027.8z"/>
<path class="st2" d="M202.2,918.3c-54-3.4-202.7-13-202.7-13v70.5c0,0,341.2,87.8,560.7,91.2c81.6,1.3,195.9-16.6,319.1-39.4
	C722.3,1039.9,344,925.1,202.2,918.3z"/>
<linearGradient id="SVGID_2_" gradientUnits="userSpaceOnUse" x1="-723.2916" y1="1375.135" x2="-361.8229" y2="1375.135" gradientTransform="matrix(-0.5587 7.564639e-02 7.564639e-02 -0.4945 590.0843 1034.8571)">
	<stop  offset="0" style="stop-color:#1E0089;stop-opacity:0"/>
	<stop  offset="1" style="stop-color:#07D9E3"/>
</linearGradient>
<path class="st3" d="M894.6,366.3l191-126.4c5.9-3.9,14-2.3,17.9,3.6v0c3.9,5.9,2.3,14-3.6,17.9l-191,126.4
	c-5.9,3.9-14,2.3-17.9-3.6v0C887.1,378.3,888.7,370.2,894.6,366.3z"/>
<linearGradient id="SVGID_3_" gradientUnits="userSpaceOnUse" x1="-938.6593" y1="642.5511" x2="-577.1906" y2="642.5511" gradientTransform="matrix(-0.5587 7.564639e-02 7.564639e-02 -0.4945 590.0843 1034.8571)">
	<stop  offset="0" style="stop-color:#1E0089;stop-opacity:0"/>
	<stop  offset="1" style="stop-color:#07D9E3"/>
</linearGradient>
<path class="st4" d="M959.5,712.2l191-126.4c5.9-3.9,14-2.3,17.9,3.6l0,0c3.9,5.9,2.3,14-3.6,17.9l-191,126.4
	c-5.9,3.9-14,2.3-17.9-3.6l0,0C952,724.2,953.6,716.2,959.5,712.2z"/>
<linearGradient id="SVGID_4_" gradientUnits="userSpaceOnUse" x1="-2013.6924" y1="570.6201" x2="-1652.2238" y2="570.6201" gradientTransform="matrix(-0.5587 7.564639e-02 7.564639e-02 -0.4945 590.0843 1034.8571)">
	<stop  offset="0" style="stop-color:#1E0089;stop-opacity:0"/>
	<stop  offset="1" style="stop-color:#07D9E3"/>
</linearGradient>
<path class="st5" d="M1554.8,666.5l191-126.4c5.9-3.9,14-2.3,17.9,3.6l0,0c3.9,5.9,2.3,14-3.6,17.9L1569,688
	c-5.9,3.9-14,2.3-17.9-3.6v0C1547.2,678.5,1548.8,670.4,1554.8,666.5z"/>
<linearGradient id="SVGID_5_" gradientUnits="userSpaceOnUse" x1="-1961.0918" y1="1409.7509" x2="-1599.623" y2="1409.7509" gradientTransform="matrix(-0.5587 7.564639e-02 7.564639e-02 -0.4945 590.0843 1034.8571)">
	<stop  offset="0" style="stop-color:#1E0089;stop-opacity:0"/>
	<stop  offset="1" style="stop-color:#07D9E3"/>
</linearGradient>
<path class="st6" d="M1588.8,255.6l191-126.4c5.9-3.9,14-2.3,17.9,3.6v0c3.9,5.9,2.3,14-3.6,17.9l-191,126.4
	c-5.9,3.9-14,2.3-17.9-3.6l0,0C1581.3,267.5,1582.9,259.5,1588.8,255.6z"/>
<linearGradient id="SVGID_6_" gradientUnits="userSpaceOnUse" x1="-705.679" y1="708.6378" x2="-339.6269" y2="708.6378" gradientTransform="matrix(-0.5071 0.1536 0.1536 -0.3766 522.9545 933.3961)">
	<stop  offset="0" style="stop-color:#1E0089;stop-opacity:0"/>
	<stop  offset="1" style="stop-color:#07D9E3"/>
</linearGradient>
<path class="st7" d="M792.9,645.5l199.2-131.8c3.7-2.4,8.6-1.4,11.1,2.3l0,0c2.4,3.7,1.4,8.6-2.3,11.1L801.7,658.8
	c-3.7,2.4-8.6,1.4-11.1-2.3v0C788.2,652.9,789.2,647.9,792.9,645.5z"/>
<linearGradient id="SVGID_7_" gradientUnits="userSpaceOnUse" x1="-2411.2983" y1="526.9634" x2="-2045.2461" y2="526.9634" gradientTransform="matrix(-0.5071 0.1536 0.1536 -0.3766 522.9545 933.3961)">
	<stop  offset="0" style="stop-color:#1E0089;stop-opacity:0"/>
	<stop  offset="1" style="stop-color:#07D9E3"/>
</linearGradient>
<path class="st8" d="M1629.9,451.9L1829.2,320c3.7-2.4,8.6-1.4,11.1,2.3l0,0c2.4,3.7,1.4,8.6-2.3,11.1l-199.2,131.8
	c-3.7,2.4-8.6,1.4-11.1-2.3l0,0C1625.3,459.3,1626.3,454.3,1629.9,451.9z"/>
<linearGradient id="SVGID_8_" gradientUnits="userSpaceOnUse" x1="-1016.9909" y1="1908.0763" x2="-650.9387" y2="1908.0763" gradientTransform="matrix(-0.5071 0.1536 0.1536 -0.3766 522.9545 933.3961)">
	<stop  offset="0" style="stop-color:#1E0089;stop-opacity:0"/>
	<stop  offset="1" style="stop-color:#07D9E3"/>
</linearGradient>
<path class="st9" d="M1135,146l199.2-131.8c3.7-2.4,8.6-1.4,11.1,2.3v0c2.4,3.7,1.4,8.6-2.3,11.1l-199.2,131.8
	c-3.7,2.4-8.6,1.4-11.1-2.3v0C1130.3,153.4,1131.3,148.4,1135,146z"/>
</svg>
