<?xml version="1.0" encoding="utf-8"?>
<!-- Generator: Adobe Illustrator 21.0.0, SVG Export Plug-In . SVG Version: 6.00 Build 0)  -->
<svg version="1.1" id="Layer_1" xmlns="http://www.w3.org/2000/svg" xmlns:xlink="http://www.w3.org/1999/xlink" x="0px" y="0px"
	 viewBox="0 0 1920 1080" style="enable-background:new 0 0 1920 1080;" xml:space="preserve">
<style type="text/css">
	.st0{fill:url(#SVGID_1_);}
	.st1{opacity:0.2;fill:#FFFFFF;enable-background:new    ;}
	.st2{opacity:0.2;fill:#F2F2F2;enable-background:new    ;}
</style>
<linearGradient id="SVGID_1_" gradientUnits="userSpaceOnUse" x1="-0.5" y1="520.2982" x2="1921.5" y2="520.2982" gradientTransform="matrix(-1 0 0 -1 1921 1066.5667)">
	<stop  offset="0" style="stop-color:#1E0089"/>
	<stop  offset="1" style="stop-color:#07D9E3"/>
</linearGradient>
<path class="st0" d="M1921.5,103.8c0,0-341.2-87.8-560.7-91.2C1141.2,9.2,685.2,144.3,455.5,141c-229.7-3.4-456-64.2-456-64.2
	l0,1003.2h1922V103.8z"/>
<path class="st1" d="M1683.6,51.7c-104.7-19.6-225.7-37.7-322.9-39.2c-192.4-3-566.4,100.4-810.5,123.8l0,0
	C942.3,256.7,1683.5,51.8,1683.6,51.7z"/>
<path class="st2" d="M1718.8,161.2c54,3.4,202.7,13,202.7,13v-70.5c0,0-341.2-87.8-560.7-91.2c-81.6-1.3-195.9,16.6-319.1,39.4
	C1198.7,39.6,1577,154.4,1718.8,161.2z"/>
</svg>
