<?xml version="1.0" encoding="utf-8"?>
<!-- Generator: Adobe Illustrator 21.0.0, SVG Export Plug-In . SVG Version: 6.00 Build 0)  -->
<svg version="1.1" id="Layer_1" xmlns="http://www.w3.org/2000/svg" xmlns:xlink="http://www.w3.org/1999/xlink" x="0px" y="0px"
	 viewBox="0 0 606 460" style="enable-background:new 0 0 606 460;" xml:space="preserve">
<style type="text/css">
	.st0{fill:#FFFFFF;}
	.st1{fill:none;stroke:#FFFFFF;stroke-width:0.5;stroke-miterlimit:10;}
	.st2{fill:none;stroke:#0000CD;stroke-miterlimit:10;}
	.st3{fill:#0000CD;stroke:#0000CD;stroke-miterlimit:10;}
	.st4{fill:none;stroke:#0000CD;stroke-width:3;stroke-miterlimit:10;}
	.st5{fill:none;stroke:#0000CD;stroke-width:3;stroke-linecap:round;stroke-miterlimit:10;}
	.st6{fill:none;stroke:#0000CD;stroke-width:2;stroke-miterlimit:10;}
	.st7{fill:#0000CD;}
</style>
<g>
	
		<image style="overflow:visible;opacity:0.55;" width="517" height="379" xlink:href="7FC733E3.png"  transform="matrix(1 0 0 1 52 60)">
	</image>
	<g>
		<path class="st0" d="M542.6,309.4c0,0,0.5-81.8-59.3-108.2c0,0-15.9-26.9-75.8-40.1c-1-0.2-2-0.4-3.1-0.6l0,0
			c0,0,58.7-34.7,60.9-52.3S441.5,69.8,410,66.5c-37.6-3.9-74.3,17.6-66.3,49.4S362,157,362,157l0,0c-80.7,4-128.5,72.2-90.2,160
			c-0.5,0.2-1,0.6-1.5,1l-3.6,8.1l-1.1,4.5l0,0c-1.2,15.3,8.1,36.4,42.3,26.2c0,0,3.6,7.3,13.1,16.6l0,0L178,386
			c-10.1-9.9-17.6-0.5-17.6-0.5c-0.6-2.1,24,1.7,22.9,0.1l31.3-24.3l29.4,18.9l77-6.9l-13.1-16.6l-42.3-26.2l-21.2-21l-3.8,3
			c0,0-27.5-26.9-57.1,24.2c-4.7,7.1-20.3,24.7-26.1,28.3c0,0-51.9,3.2-54.3,3.4c-2.4,0.2-10.8-0.9-11.7,4.9c0,0-6.4-7.2-14.6,4.1
			c-2.6,2.4-9.2,1.3-13.2,3.1c-4,1.8-5.9,2.6-6,5.9h33.9c0,0-0.9,2,10.2,1.5L143,388c0.8,1.9,3.5,4.2,8.2,5
			c11.5,2,26.5-2.2,26.5-2.2c55.6,8.1,177.8,6,177.8,6l0,0c23.5,11,57.5,19.1,105.4,15.8C460.7,412.6,554.1,405.5,542.6,309.4z
			 M147.2,385.6l0.9-0.5c0.8,0.8,1.7,1.8,2.9,2.8C149.6,386.8,148.3,386.1,147.2,385.6z M152.5,382.7l1.1-0.6
			c0.2,0.9,0.4,1.8,0.7,2.9C153.8,384.1,153.2,383.3,152.5,382.7z"/>
		<path class="st1" d="M542.6,309.4c0,0,0.5-81.8-59.3-108.2c0,0-15.9-26.9-75.8-40.1c-1-0.2-2-0.4-3.1-0.6l0,0
			c0,0,58.7-34.7,60.9-52.3S441.5,69.8,410,66.5c-37.6-3.9-74.3,17.6-66.3,49.4S362,157,362,157l0,0c-80.7,4-128.5,72.2-90.2,160
			c-0.5,0.2-1,0.6-1.5,1l-3.6,8.1l-1.1,4.5l0,0c-1.2,15.3,8.1,36.4,42.3,26.2c0,0,3.6,7.3,13.1,16.6l0,0L178,386
			c-10.1-9.9-17.6-0.5-17.6-0.5c-0.6-2.1,24,1.7,22.9,0.1l31.3-24.3l29.4,18.9l77-6.9l-13.1-16.6l-42.3-26.2l-21.2-21l-3.8,3
			c0,0-27.5-26.9-57.1,24.2c-4.7,7.1-20.3,24.7-26.1,28.3c0,0-51.9,3.2-54.3,3.4c-2.4,0.2-10.8-0.9-11.7,4.9c0,0-6.4-7.2-14.6,4.1
			c-2.6,2.4-9.2,1.3-13.2,3.1c-4,1.8-5.9,2.6-6,5.9h33.9c0,0-0.9,2,10.2,1.5L143,388c0.8,1.9,3.5,4.2,8.2,5
			c11.5,2,26.5-2.2,26.5-2.2c55.6,8.1,177.8,6,177.8,6l0,0c23.5,11,57.5,19.1,105.4,15.8C460.7,412.6,554.1,405.5,542.6,309.4z
			 M147.2,385.6l0.9-0.5c0.8,0.8,1.7,1.8,2.9,2.8C149.6,386.8,148.3,386.1,147.2,385.6z M152.5,382.7l1.1-0.6
			c0.2,0.9,0.4,1.8,0.7,2.9C153.8,384.1,153.2,383.3,152.5,382.7z"/>
	</g>
</g>
<path class="st2" d="M543,309.4c0,0,0.5-81.8-59.3-108.2c0,0-15.9-26.9-75.8-40.1c-1-0.2-2-0.4-3.1-0.6l0,0c0,0,58.7-34.7,60.9-52.3
	s-23.8-38.4-55.3-41.7c-37.6-3.9-74.3,17.6-66.3,49.4c8.1,31.8,18.3,41.1,18.3,41.1l0,0c-80.7,4-128.5,72.2-90.2,160
	c-10.8,4.6-13,54.4,36.1,39.7c0,0,32,64.1,152.8,55.8C461.2,412.6,554.5,405.5,543,309.4z"/>
<path class="st2" d="M351.1,322.8h74c0,0,4.4,32.9-37,35.1C354.8,360.1,351.1,322.8,351.1,322.8z"/>
<path class="st2" d="M472.7,322.8h57.5c0,0-2.2,31-24.2,31S474.2,339.4,472.7,322.8z"/>
<path class="st3" d="M380.5,322.8c1.9,7.1,7.1,16.5,20.9,15.5c12.1-0.9,16.8-8.7,18.6-15.5H380.5z"/>
<path class="st3" d="M511.5,336.6c11.4,0.2,14.6-7.5,15.4-13.8H495C495.8,328.3,498.9,336.4,511.5,336.6z"/>
<path class="st4" d="M327.7,281.4c15.4-15.7,79.8-20.9,102.1,0c20.5,26.7,10,87.1-9.8,97.7c-17.3,11-78,15-90.5-8.1
	C316.8,358,302.5,308.4,327.7,281.4z"/>
<path class="st2" d="M452.7,359h5.1c0,0,1.3,3.5-2.6,6.4s-6.8,8.1-5.7,10.1c1.1,2,1.5,4.4-0.2,5.7"/>
<path class="st2" d="M443.9,345c0,0,7-12.1,12.5,0"/>
<path class="st4" d="M550.7,277.3c-1.6-2.4-6.5-4.5-13.1-6.1c5.6,21,5.5,38.1,5.5,38.1c4.7,39-7.9,63.3-24.5,78.5
	c11-0.3,23.3-4,35.8-13.5C583.2,336.6,560.6,285.1,550.7,277.3z"/>
<path class="st4" d="M543,309.4c0,0,0.1-17.1-5.5-38.1c-21.5-5.1-61.2-5.3-67,4.2c-24.2,35.9-1.5,85.7,5.1,94.5
	c4.9,6.6,21.5,18.5,42.9,17.8C535.1,372.6,547.7,348.3,543,309.4z"/>
<line class="st5" x1="544" y1="325.6" x2="573" y2="325.6"/>
<path class="st2" d="M295.3,345c-4.7,0-11.2-15.9,4.6-14.4c-9-10.4-21-1-20.3,11.8"/>
<path class="st2" d="M543,309.4c0,0,0.5-81.8-59.3-108.2c0,0-15.9-26.9-75.8-40.1c-1-0.2-2-0.4-3.1-0.6l0,0c0,0,58.7-34.7,60.9-52.3
	s-23.8-38.4-55.3-41.7c-37.6-3.9-74.3,17.6-66.3,49.4c8.1,31.8,18.3,41.1,18.3,41.1l0,0c-80.7,4-128.5,72.2-90.2,160
	c-10.8,4.6-13,54.4,36.1,39.7c0,0,3.6,7.3,13.1,16.6l0,0l-143,12.7c-10.1-9.9-17.6-0.5-17.6-0.5c-2.2-7.9-10.1-14.8-6-0.5
	c-5.5-8.5-14.6-6.8-3.3,2.9c-11-8.1-11.5,3.1,0,5.1s26.5-2.2,26.5-2.2c55.6,8.1,177.8,6,177.8,6l0,0c23.5,11,57.5,19.1,105.4,15.8
	C461.2,412.6,554.5,405.5,543,309.4z"/>
<path class="st2" d="M543,309.4c0,0,0.5-81.8-59.3-108.2c0,0-15.9-26.9-75.8-40.1c-1-0.2-2-0.4-3.1-0.6l0,0c0,0,58.7-34.7,60.9-52.3
	s-23.8-38.4-55.3-41.7c-37.6-3.9-74.3,17.6-66.3,49.4c8.1,31.8,18.3,41.1,18.3,41.1l0,0c-80.7,4-128.5,72.2-90.2,160
	c-10.8,4.6-13,54.4,36.1,39.7c0,0,3.6,7.3,13.1,16.6l0,0l-143,12.7c-10.1-9.9-17.6-0.5-17.6-0.5c-2.2-7.9-10.1-14.8-6-0.5
	c-5.5-8.5-14.6-6.8-3.3,2.9c-11-8.1-11.5,3.1,0,5.1s26.5-2.2,26.5-2.2c55.6,8.1,177.8,6,177.8,6l0,0c23.5,11,57.5,19.1,105.4,15.8
	C461.2,412.6,554.5,405.5,543,309.4z"/>
<path class="st2" d="M362.5,157c0,0,31.2-2,42.3,3.4"/>
<path class="st2" d="M355.6,260.9c0,0,8.1-10.1,26.9-3.7"/>
<path class="st2" d="M491.9,255.1c0,0,13.7-4.9,20.6,2.9"/>
<path class="st2" d="M390.1,363.7c0,0,36.3-1.6,35.1-40.9"/>
<path class="st2" d="M501.4,360.2c0,0-29.6-4.4-28.7-37.3"/>
<path class="st6" d="M441,317.9c0,0,8.5-8,18.7,0"/>
<path class="st2" d="M183.3,385.6c0,0,30-22.6,31.3-24.3c0,0,23.7,16.9,29.4,18.9"/>
<line class="st2" x1="308.7" y1="374.5" x2="313.8" y2="364.9"/>
<line class="st2" x1="305.6" y1="357.5" x2="297.9" y2="375.4"/>
<line class="st2" x1="282.9" y1="376.8" x2="289.7" y2="359.4"/>
<line class="st2" x1="269.9" y1="377.9" x2="279.6" y2="357"/>
<line class="st2" x1="256.7" y1="379.1" x2="270.5" y2="349.3"/>
<line class="st2" x1="247.2" y1="379.9" x2="266.1" y2="336.6"/>
<path class="st2" d="M237.6,376.8c0,0,15.7-44.1,23-51.5"/>
<path class="st2" d="M229.7,371.7c0,0,15.7-43.9,25.1-52.2"/>
<path class="st2" d="M220.8,365.7c0,0,17.8-45.3,28.3-51.8"/>
<path class="st2" d="M214.6,361.3c0,0,13.5-40.6,26.4-48.7"/>
<path class="st2" d="M101.7,368.5c0,0-2.9,12.1,0.4,19.4"/>
<path class="st2" d="M91.8,373.3c0,0-1.5,5.6,0,13.1"/>
<path class="st2" d="M91.2,375.8H78.4c0,0,0.2,8.8,1.3,10.6"/>
<path class="st2" d="M89.2,386.4c0,0-2.4-5.9-2.2-10.6"/>
<path class="st2" d="M82.7,375.8c0,0-0.8,8.2,2.1,10.6"/>
<path class="st2" d="M73.9,378.8c0,0-0.4,5.9,0.9,7.6"/>
<path class="st2" d="M69.3,379.4c0,0-0.7,5.4,0,7"/>
<path class="st2" d="M65.1,380.2c0,0-0.9,4.1,0,6.3"/>
<path class="st2" d="M477.9,194.3c0,0-28.5,96-172.3,121.8"/>
<path class="st2" d="M472.7,189.5c0,0-43.2,100.2-171.2,124.3"/>
<path class="st2" d="M464.5,183.5c0,0-42.7,102.5-194.7,127.4"/>
<path class="st2" d="M460.4,180.9c0,0-63.5,110.1-191.2,128.7"/>
<path class="st2" d="M452.7,176.6c0,0-64.5,105.5-184.1,131.3"/>
<path class="st2" d="M449.2,174.9c0,0-63.7,104.3-183.5,124.9"/>
<path class="st2" d="M441,171.2c0,0-45.7,85.6-177.8,119.6"/>
<path class="st2" d="M481.9,207.7c0,0,48.3,36.5,61.3,103.2"/>
<path class="st2" d="M483,203.9c0,0,41,22.7,59.1,91.9"/>
<path class="st2" d="M261.1,281.1c30.4-10.4,128.7-40.4,172.5-112.7"/>
<path class="st2" d="M429.2,166.9c-18.4,31-86.3,88.3-168.9,109.7"/>
<path class="st2" d="M418.8,163.8c-5.2,9.8-70,86.1-159.9,100.2"/>
<path class="st2" d="M258.9,260.9c55.8-14.1,112.4-49.1,155.4-98.3"/>
<path class="st2" d="M259,251.7c28.3-6.5,107.1-44,139.9-93.1c0,0,17.1-23.1,34.6-35.4s19.4-29.6,19.1-39.7"/>
<path class="st2" d="M259,245.2c11.8-1,87.4-31.4,131.5-87.9"/>
<path class="st2" d="M260.3,239.7c19.7-2.3,88.4-41.5,117.7-83"/>
<path class="st2" d="M261.9,232.2c24.7-6.3,86.4-51.3,104.1-75.5"/>
<path class="st2" d="M263.2,227.3c25.9-7.9,81.6-52.4,93.5-69.8"/>
<path class="st2" d="M267.6,215.5c19.1-3.8,71.2-47.1,74.1-55.9"/>
<path class="st2" d="M270.1,210.4c14.8-4.2,48.3-33.1,57.2-46.9"/>
<path class="st2" d="M278.8,196.8c8.8-2.6,27-17.7,37.9-29.3"/>
<path class="st2" d="M368,157.3c0,0-25.4-40.9-4.4-81.7"/>
<path class="st2" d="M376.1,70c0,0-23.2,37.1-3,86.7"/>
<path class="st2" d="M384.7,67.7c0,0-28.4,24.5-8.6,89"/>
<path class="st2" d="M397.5,66.1c0,0-33.1,23.6-15.9,90.6"/>
<path class="st2" d="M410.5,66.5c0,0-40.8,20.5-24.7,90.5"/>
<path class="st2" d="M422.2,68.6c0,0-45.6,14.6-33.3,88.4"/>
<path class="st2" d="M393.8,157.4c0,0,18.5-30.6,28.4-35.9s23.3-30.2,21.3-44.4"/>
<path class="st2" d="M396.2,158.1c0,0,23.4-28.3,34-35.4s22.1-27.8,19-41.8"/>
<path class="st2" d="M401.4,159.2c0,0,11.6-15.3,38.3-29.2s17.5-42.2,17.5-42.2"/>
<path class="st2" d="M388.4,154.2c0,0,19.1-33.2,26.8-39.8c7.7-6.6,22.2-29.7,22.2-40.5"/>
<path class="st2" d="M388.4,148.3c0,0,7-23.5,16.1-36.6c9.1-13,23.5-31.4,22.9-41.7"/>
<path class="st2" d="M388.4,139.7c0,0,7.4-33.3,13-41.2S416,75.4,426,69.6"/>
<path class="st2" d="M143.3,388l-41.3-0.1c-11.2,0.5-10.2-1.5-10.2-1.5H57.9c0.2-3.3,2-4,6-5.9c4-1.8,10.6-0.7,13.2-3.1
	c8.2-11.3,14.6-4.1,14.6-4.1c0.9-5.7,9.3-4.7,11.7-4.9c2.4-0.2,54.3-3.4,54.3-3.4c5.8-3.6,21.4-21.1,26.1-28.3
	c29.7-51.1,57.1-24.2,57.1-24.2l3.8-3c0,0,18.8,19,21.2,21c0.9-12.2,6.3-13.6,6.3-13.6s16.9-14,33.9,0
	c53.1,0.8,158.3-36.2,177.5-115.9"/>
<circle class="st7" cx="447.8" cy="345.1" r="1"/>
<circle class="st7" cx="452.6" cy="345.1" r="1"/>
</svg>
